<?xml version="1.0" encoding="utf-8"?>
<!-- Generator: Adobe Illustrator 16.0.0, SVG Export Plug-In . SVG Version: 6.00 Build 0)  -->
<!DOCTYPE svg PUBLIC "-//W3C//DTD SVG 1.1//EN" "http://www.w3.org/Graphics/SVG/1.1/DTD/svg11.dtd">
<svg version="1.1" xmlns="http://www.w3.org/2000/svg" xmlns:xlink="http://www.w3.org/1999/xlink" x="0px" y="0px" width="960px"
	 height="560px" viewBox="0 0 960 560" enable-background="new 0 0 960 560" xml:space="preserve">
<g id="Layer_1">
	<rect y="149" fill="#EF6154" width="962" height="275"/>
	<g id="XMLID_1_">
		<g>
			<path fill="#33312A" d="M358.34,273.48c6.5,0,13.01-0.15,19.5,0.07c3.29,0.11,4.25-0.84,4.03-4.22
				c-0.8-12.53-10.54-21.77-23.38-21.8c-13.02-0.04-23.22,9.86-23.72,22.72c-0.11,2.99,1.31,3.27,3.58,3.25
				C345.01,273.45,351.68,273.48,358.34,273.48z M379.99,298.52c-13.16,0-26.31-0.06-39.47,0.021c-8.68,0.04-10.01,1.78-8.16,10.14
				c3.71,16.801,20.78,23.99,36.76,15.49c4.58-2.43,8.54-5.75,12.6-8.92c6.54-5.11,11.94-5.68,16.72-1.92
				c5.39,4.24,7.03,11.58,4.01,18.43c-4.13,9.36-11.55,15.36-20.74,19.05c-13.6,5.46-27.81,6.62-42.12,3.83
				c-17.28-3.37-28.93-13.96-34.53-30.43c-8.17-24.04-8.5-48.48,0.49-72.31c13.15-34.82,54.83-45.19,82.7-20.9
				c11.05,9.62,15.79,22.7,18.11,36.76c0.7,4.25,1.03,8.58,1.21,12.9c0.45,10.88-5.65,17.56-16.58,18.189
				c-3.66,0.21-7.33,0.03-11,0.03C379.99,298.76,379.99,298.64,379.99,298.52z"/>
			<path fill="#EF6154" d="M358.34,273.48c-6.66,0-13.33-0.03-19.99,0.02c-2.27,0.02-3.69-0.26-3.58-3.25
				c0.5-12.86,10.7-22.76,23.72-22.72c12.84,0.03,22.58,9.27,23.38,21.8c0.22,3.38-0.74,4.33-4.03,4.22
				C371.35,273.33,364.84,273.48,358.34,273.48z"/>
			<path fill="#FFFFFF" d="M660.35,277.95c0.631,2.42,1.771,4.43,3.271,5.97c0.05,0.2,0.09,0.41,0.12,0.63
				c-0.471,0.3-0.971,0.57-1.5,0.811c-0.04,0.02-0.08,0.04-0.12,0.05c-2.15-0.18-4.19,0.18-6.021,1.04
				c-2.909-0.271-5.75-1.71-8.399-4.3c-3.55-3.48-7.11-6.97-10.66-10.45c5.92,1.11,11.83,2.25,17.74,3.41
				c2.229,0.43,4.1,1.38,5.55,2.74C660.33,277.88,660.34,277.92,660.35,277.95z"/>
			<path fill="#FFFFFF" d="M663.62,283.92c-1.5-1.54-2.64-3.55-3.271-5.97c-0.01-0.03-0.02-0.07-0.02-0.1
				C661.96,279.38,663.08,281.44,663.62,283.92z"/>
			<path fill="#FFFFFF" d="M775.22,210.48c4.8,6.83,3.3,13.86-3.88,18.29c-15.29,9.46-30.66,18.81-45.99,28.2
				c-11.85,7.26-23.67,14.56-35.529,21.78c-4.7-0.2-9.41-0.39-14.11-0.58c-3.11-0.13-5.74,0.46-7.82,1.74
				c1.03-2.15,1.44-4.76,1.16-7.72c-0.439-4.75-0.89-9.49-1.34-14.24c15.31-28.18,30.59-56.37,45.95-84.52
				c3.8-6.97,11.29-9.01,17.89-4.66C748.6,180.02,763.44,193.68,775.22,210.48z"/>
			<path fill="#FFFFFF" d="M733.04,280.68c8.33,0.72,12.99,6.47,11.64,14.68c-2.449,14.85-8.199,28.39-16.79,40.72
				c-0.47,0.68-0.989,1.34-1.58,1.91c-0.729,0.68-1.56,1.24-1.92,1.51c-5.46,3.44-10.17,3.36-14.689-0.7
				c-11.24-10.12-22.42-20.3-33.54-30.569c-1.021-4.23-2.05-8.471-3.08-12.7c-1.311-5.391-4.62-8.84-9.18-9.851
				c-0.011-0.17-0.03-0.34-0.051-0.51c-0.029-0.189-0.06-0.38-0.1-0.56c0.01-0.03,0.02-0.061,0.05-0.091
				c0.09-0.06,0.17-0.109,0.26-0.18c3.841,3.53,9.721,4.141,15.261,0.79c3.5-2.12,7-4.24,10.5-6.38
				c10.92,0.48,21.83,0.98,32.75,1.46C726.06,280.36,729.57,280.38,733.04,280.68z"/>
			<path fill="#FFFFFF" d="M689.82,278.75c-3.5,2.14-7,4.26-10.5,6.38c-5.54,3.351-11.42,2.74-15.261-0.79
				c1.681-1.12,2.971-2.62,3.83-4.43c2.08-1.28,4.71-1.87,7.82-1.74C680.41,278.36,685.12,278.55,689.82,278.75z"/>
			<path fill="#FFFFFF" d="M686.24,350.12c1.58,6.6-0.15,11.25-5.29,14.5c-1.84,1.42-4.29,1.78-6.8,1.99
				c-14.261,1.22-28.19-0.391-41.78-4.841c-8.54-2.8-11.73-10.13-7.771-18.159c6.271-12.73,12.601-25.431,18.95-38.11
				c4.21-2.4,8.42-4.8,12.63-7.19c2.761-1.39,4.94-3.159,6.271-5.409c0.39,2.04,1.41,3.939,3.18,5.58c3.5,3.26,7.01,6.51,10.53,9.75
				C679.55,322.19,682.91,336.15,686.24,350.12z"/>
			<path fill="#FFFFFF" d="M676.16,308.23c-3.521-3.24-7.03-6.49-10.53-9.75c-1.77-1.641-2.79-3.54-3.18-5.58
				c1.21-2,1.75-4.381,1.45-7.221c4.56,1.011,7.869,4.46,9.18,9.851C674.11,299.76,675.14,304,676.16,308.23z"/>
			<path fill="#FFFFFF" d="M669.05,272.19c0.28,2.96-0.13,5.57-1.16,7.72c-1.67,1.01-3,2.46-3.949,4.32
				c-0.11-0.101-0.21-0.2-0.32-0.311c-0.54-2.479-1.66-4.54-3.29-6.07c-0.811-3.22-0.061-6.17,1.47-9c1.97-3.63,3.95-7.27,5.91-10.9
				C668.16,262.7,668.61,267.44,669.05,272.19z"/>
			<path fill="#FFFFFF" d="M667.71,257.95c-1.96,3.63-3.94,7.27-5.91,10.9c-1.53,2.83-2.28,5.78-1.47,9
				c-1.45-1.36-3.32-2.31-5.55-2.74c-5.91-1.16-11.82-2.3-17.74-3.41c-9.35-9.18-18.7-18.36-28.01-27.58
				c-8.431-8.34-7.73-15.62,2.029-22.49c0.82-0.58,1.61-1.19,2.41-1.78c10.21-7.05,21.351-12.06,33.36-15.08
				c9.72-2.44,15.87,1.9,16.89,11.96C665.1,230.47,666.42,244.21,667.71,257.95z"/>
			<path fill="#FFFFFF" d="M667.89,279.91c-0.859,1.81-2.149,3.31-3.83,4.43c-0.04-0.03-0.079-0.07-0.119-0.109
				C664.89,282.37,666.22,280.92,667.89,279.91z"/>
			<path fill="#FFFFFF" d="M663.94,284.23c0.04,0.039,0.079,0.079,0.119,0.109c-0.09,0.07-0.17,0.12-0.26,0.18
				C663.84,284.42,663.88,284.32,663.94,284.23z"/>
			<path fill="#FFFFFF" d="M663.9,285.68c0.3,2.84-0.24,5.221-1.45,7.221c-0.44-2.33-0.09-4.83,0.89-7.33
				C663.53,285.59,663.72,285.63,663.9,285.68z"/>
			<path fill="#FFFFFF" d="M663.94,284.23c-0.061,0.09-0.101,0.189-0.141,0.289c-0.02,0.011-0.04,0.021-0.06,0.03
				c-0.03-0.22-0.07-0.43-0.12-0.63C663.73,284.03,663.83,284.13,663.94,284.23z"/>
			<path fill="#FFFFFF" d="M663.85,285.17c0.021,0.17,0.04,0.34,0.051,0.51c-0.181-0.05-0.37-0.09-0.561-0.109
				c0-0.011,0-0.03,0.01-0.04c0.12-0.32,0.25-0.62,0.4-0.92C663.79,284.79,663.82,284.98,663.85,285.17z"/>
			<path fill="#FFFFFF" d="M663.74,284.55c0.02,0.021,0.02,0.04,0.01,0.061c-0.15,0.3-0.28,0.6-0.4,0.92
				c-0.01,0.01-0.01,0.029-0.01,0.04c-0.189-0.04-0.38-0.07-0.57-0.101c-0.22-0.029-0.439-0.05-0.649-0.06
				c0.04-0.01,0.08-0.03,0.12-0.05C662.77,285.12,663.27,284.85,663.74,284.55z"/>
			<path fill="#FFFFFF" d="M662.77,285.47c0.19,0.03,0.381,0.061,0.57,0.101c-0.979,2.5-1.33,5-0.89,7.33
				c-1.33,2.25-3.51,4.02-6.271,5.409c-4.21,2.391-8.42,4.79-12.63,7.19c2.12-4.23,4.25-8.46,6.37-12.68
				c1.521-3.03,3.66-5.181,6.18-6.37c1.99,0.2,4.011-0.15,6.021-1.04C662.33,285.42,662.55,285.44,662.77,285.47z"/>
			<path fill="#FFFFFF" d="M656.1,286.45c1.83-0.86,3.87-1.22,6.021-1.04C660.11,286.3,658.09,286.65,656.1,286.45z"/>
			<path fill="#FFFFFF" d="M656.1,286.45c-2.52,1.189-4.659,3.34-6.18,6.37c-2.12,4.22-4.25,8.449-6.37,12.68
				c-11.83,6.73-23.66,13.47-35.53,20.14c-7.68,4.311-14.63,2.351-18.14-5.67c-6.28-14.39-8.61-29.6-7.39-45.24
				c0.52-6.62,6.76-11.59,13.399-10.45c13.74,2.35,27.45,4.82,41.15,7.42c3.55,3.48,7.11,6.97,10.66,10.45
				C650.35,284.74,653.19,286.18,656.1,286.45z"/>
			<path fill="#33312A" d="M567.69,263.28c1.64,18.4,2.54,36.831-2.29,54.99c-8.021,30.2-32.25,40.04-56.75,35.671
				c-7.341-1.311-13.2-5.71-19.25-11.25c0,13.279,0.02,25.6,0,37.92c-0.021,9.1-6.341,15.8-14.92,15.87
				c-8.64,0.079-15.19-6.5-15.2-15.62c-0.05-49.62-0.04-99.25,0-148.88c0-7.11,4.22-13,10.34-14.85c6.61-2.01,14.25,0.28,17.34,6.35
				c2.23,4.37,3.81,3.11,6.76,1.23c19.011-12.14,44.23-9.8,59.67,5.49C562.56,239.28,566.57,250.8,567.69,263.28z M538.56,286.88
				c-0.29-7.65,0.48-14.97-1.14-22.22c-2.33-10.39-9.229-16.43-19.4-16.66c-11.159-0.25-18.35,4.98-20.64,16.07
				c-2.979,14.45-2.89,29.15-0.32,43.59c2.221,12.479,9.11,17.52,21.04,17.34c10.761-0.16,16.94-6.04,19.521-18.1
				C539.07,300.12,538.13,293.31,538.56,286.88z"/>
			<path fill="#EF6154" d="M537.42,264.66c1.62,7.25,0.85,14.57,1.14,22.22c-0.43,6.43,0.511,13.24-0.939,20.021
				c-2.58,12.06-8.76,17.939-19.521,18.1c-11.93,0.18-18.819-4.86-21.04-17.34c-2.569-14.44-2.659-29.14,0.32-43.59
				c2.29-11.09,9.48-16.32,20.64-16.07C528.19,248.23,535.09,254.27,537.42,264.66z"/>
			<path fill="#33312A" d="M447.99,266.01c0,24.641,0.03,49.28-0.02,73.92c-0.02,7.24-4.56,13.29-10.91,14.99
				c-6.96,1.86-14.21-1.05-17.58-7.1c-1.5-2.69-1.9-5.63-1.9-8.66c0.01-49.12-0.02-98.23,0.03-147.35
				c0.01-9.69,6.22-16.28,15.03-16.32c8.96-0.04,15.33,6.81,15.34,16.6C448,216.73,447.99,241.37,447.99,266.01z"/>
			<path fill="#33312A" d="M289.93,218.62c9.24,2.74,13.49,11.04,10.44,20.87c-12.96,41.91-25.94,83.8-39.02,125.66
				c-5.35,17.13-16.53,25.26-34.71,25.75c-3.85,0.109-7.65-0.181-11.42-0.9c-8.55-1.62-13.98-7.63-13.7-15.17
				c0.31-8.24,6.17-13.89,15.3-14.68c1.65-0.15,3.33-0.03,4.99-0.131c10.53-0.579,15.24-7.26,11.94-17.279
				c-2.76-8.37-7.29-15.95-11.11-23.851c-12.42-25.63-24.95-51.2-37.41-76.81c-4.58-9.4-1.95-18.45,6.48-22.46
				c8.56-4.07,16.96-0.66,21.63,8.89c10.76,22.01,21.46,44.06,32.25,66.07c0.85,1.72,1.31,3.75,3.43,5.34
				c7.22-23.42,14.33-46.51,21.46-69.6C273.34,221.04,281.53,216.13,289.93,218.62z"/>
		</g>
		<g>
			<path fill="none" stroke="#FFFFFF" stroke-width="4" stroke-miterlimit="10" d="M667.71,257.95
				c15.31-28.18,30.59-56.37,45.95-84.52c3.8-6.97,11.29-9.01,17.89-4.66c17.05,11.25,31.891,24.91,43.67,41.71
				c4.8,6.83,3.3,13.86-3.88,18.29c-15.29,9.46-30.66,18.81-45.99,28.2c-11.85,7.26-23.67,14.56-35.529,21.78
				c-3.5,2.14-7,4.26-10.5,6.38c-5.54,3.351-11.42,2.74-15.261-0.79c-0.04-0.03-0.079-0.07-0.119-0.109
				c-0.11-0.101-0.21-0.2-0.32-0.311c-1.5-1.54-2.64-3.55-3.271-5.97c-0.01-0.03-0.02-0.07-0.02-0.1c-0.811-3.22-0.061-6.17,1.47-9
				C663.77,265.22,665.75,261.58,667.71,257.95z"/>
			<path fill="none" stroke="#FFFFFF" stroke-width="4" stroke-miterlimit="10" d="M689.82,278.75c10.92,0.48,21.83,0.98,32.75,1.46
				c3.489,0.15,7,0.17,10.47,0.47c8.33,0.72,12.99,6.47,11.64,14.68c-2.449,14.85-8.199,28.39-16.79,40.72
				c-0.47,0.68-0.989,1.34-1.58,1.91c-0.729,0.68-1.56,1.24-1.92,1.51c-5.46,3.44-10.17,3.36-14.689-0.7
				c-11.24-10.12-22.42-20.3-33.54-30.569c-3.521-3.24-7.03-6.49-10.53-9.75c-1.77-1.641-2.79-3.54-3.18-5.58
				c-0.44-2.33-0.09-4.83,0.89-7.33c0-0.011,0-0.03,0.01-0.04c0.12-0.32,0.25-0.62,0.4-0.92c0.01-0.03,0.02-0.061,0.05-0.091
				c0.04-0.1,0.08-0.199,0.141-0.289c0.949-1.86,2.279-3.311,3.949-4.32c2.08-1.28,4.71-1.87,7.82-1.74
				C680.41,278.36,685.12,278.55,689.82,278.75z"/>
			<path fill="none" stroke="#FFFFFF" stroke-width="4" stroke-miterlimit="10" d="M637.04,271.7c-9.35-9.18-18.7-18.36-28.01-27.58
				c-8.431-8.34-7.73-15.62,2.029-22.49c0.82-0.58,1.61-1.19,2.41-1.78c10.21-7.05,21.351-12.06,33.36-15.08
				c9.72-2.44,15.87,1.9,16.89,11.96c1.38,13.74,2.7,27.48,3.99,41.22c0.45,4.75,0.9,9.49,1.34,14.24c0.28,2.96-0.13,5.57-1.16,7.72
				c-0.859,1.81-2.149,3.31-3.83,4.43c-0.09,0.07-0.17,0.12-0.26,0.18c-0.02,0.011-0.04,0.021-0.06,0.03
				c-0.471,0.3-0.971,0.57-1.5,0.811c-0.04,0.02-0.08,0.04-0.12,0.05c-2.01,0.89-4.03,1.24-6.021,1.04
				c-2.909-0.271-5.75-1.71-8.399-4.3C644.15,278.67,640.59,275.18,637.04,271.7z"/>
			<path fill="none" stroke="#FFFFFF" stroke-width="4" stroke-miterlimit="10" d="M676.16,308.23
				c3.39,13.96,6.75,27.92,10.08,41.89c1.58,6.6-0.15,11.25-5.29,14.5c-1.84,1.42-4.29,1.78-6.8,1.99
				c-14.261,1.22-28.19-0.391-41.78-4.841c-8.54-2.8-11.73-10.13-7.771-18.159c6.271-12.73,12.601-25.431,18.95-38.11
				c2.12-4.23,4.25-8.46,6.37-12.68c1.521-3.03,3.66-5.181,6.18-6.37c1.83-0.86,3.87-1.22,6.021-1.04
				c0.21,0.01,0.43,0.03,0.649,0.06c0.19,0.03,0.381,0.061,0.57,0.101c0.19,0.02,0.38,0.06,0.561,0.109
				c4.56,1.011,7.869,4.46,9.18,9.851C674.11,299.76,675.14,304,676.16,308.23z"/>
			<path fill="none" stroke="#FFFFFF" stroke-width="4" stroke-miterlimit="10" d="M662.45,292.9c-1.33,2.25-3.51,4.02-6.271,5.409
				c-4.21,2.391-8.42,4.79-12.63,7.19c-11.83,6.73-23.66,13.47-35.53,20.14c-7.68,4.311-14.63,2.351-18.14-5.67
				c-6.28-14.39-8.61-29.6-7.39-45.24c0.52-6.62,6.76-11.59,13.399-10.45c13.74,2.35,27.45,4.82,41.15,7.42
				c5.92,1.11,11.83,2.25,17.74,3.41c2.229,0.43,4.1,1.38,5.55,2.74c1.63,1.53,2.75,3.59,3.29,6.07c0.05,0.2,0.09,0.41,0.12,0.63
				c0.02,0.021,0.02,0.04,0.01,0.061c0.04,0.18,0.07,0.37,0.1,0.56c0.021,0.17,0.04,0.34,0.051,0.51
				C664.2,288.52,663.66,290.9,662.45,292.9z"/>
		</g>
	</g>
	<rect x="166" y="154" fill="none" width="626" height="266"/>
</g>
<g id="Layer_2">
	<rect x="175" y="154" fill="none" width="608" height="247"/>
	<rect x="175" y="149" fill="none" width="623" height="273"/>
</g>
</svg>
